<svg width="27" height="27" viewBox="0 0 27 27" fill="none" xmlns="http://www.w3.org/2000/svg">
<g clip-path="url(#clip0_135_224)">
<path d="M12 25.5C12 25.8978 12.158 26.2794 12.4393 26.5607C12.7206 26.842 13.1022 27 13.5 27C13.8978 27 14.2794 26.842 14.5607 26.5607C14.842 26.2794 15 25.8978 15 25.5V15H25.5C25.8978 15 26.2794 14.842 26.5607 14.5607C26.842 14.2794 27 13.8978 27 13.5C27 13.1022 26.842 12.7206 26.5607 12.4393C26.2794 12.158 25.8978 12 25.5 12H15V1.5C15 1.10218 14.842 0.720644 14.5607 0.43934C14.2794 0.158035 13.8978 0 13.5 0C13.1022 0 12.7206 0.158035 12.4393 0.43934C12.158 0.720644 12 1.10218 12 1.5V12H1.5C1.10218 12 0.720644 12.158 0.43934 12.4393C0.158035 12.7206 0 13.1022 0 13.5C0 13.8978 0.158035 14.2794 0.43934 14.5607C0.720644 14.842 1.10218 15 1.5 15H12V25.5Z" fill="black"/>
</g>
<defs>
<clipPath id="clip0_135_224">
<rect width="27" height="27" fill="white"/>
</clipPath>
</defs>
</svg>
