<svg width="24" height="24" viewBox="0 0 24 24" fill="none" xmlns="http://www.w3.org/2000/svg">
<path d="M0.955144 15.424L11.1504 5.32951C11.2718 5.2097 11.4033 5.12463 11.5449 5.0743C11.6865 5.02398 11.8382 4.99922 12 5.00002C12.1618 5.00002 12.3135 5.02518 12.4551 5.0755C12.5967 5.12582 12.7282 5.21049 12.8496 5.32951L23.0752 15.424C23.3584 15.7035 23.5 16.053 23.5 16.4724C23.5 16.8917 23.3483 17.2512 23.0449 17.5507C22.7414 17.8502 22.3874 18 21.9828 18C21.5783 18 21.2243 17.8502 20.9208 17.5507L12 8.74425L3.07915 17.5507C2.79595 17.8303 2.44681 17.97 2.03171 17.97C1.61662 17.97 1.25776 17.8203 0.955144 17.5207C0.651713 17.2212 0.499998 16.8717 0.499998 16.4724C0.499998 16.073 0.651714 15.7235 0.955144 15.424Z" fill="black"/>
</svg>
