<svg width="27" height="27" viewBox="0 0 27 27" fill="none" xmlns="http://www.w3.org/2000/svg">
<g clip-path="url(#clip0_177_191)">
<path d="M20.9247 23.0459C21.206 23.3272 21.5875 23.4853 21.9854 23.4853C22.3832 23.4853 22.7647 23.3272 23.046 23.0459C23.3273 22.7646 23.4854 22.3831 23.4854 21.9853C23.4854 21.5875 23.3273 21.2059 23.046 20.9246L15.6214 13.5L23.046 6.07538C23.3273 5.79407 23.4854 5.41254 23.4854 5.01472C23.4854 4.61689 23.3273 4.23536 23.046 3.95406C22.7647 3.67275 22.3832 3.51472 21.9854 3.51472C21.5875 3.51472 21.206 3.67275 20.9247 3.95406L13.5001 11.3787L6.07546 3.95406C5.79416 3.67275 5.41263 3.51472 5.0148 3.51472C4.61698 3.51472 4.23545 3.67275 3.95414 3.95406C3.67284 4.23536 3.5148 4.61689 3.5148 5.01472C3.5148 5.41254 3.67284 5.79407 3.95414 6.07538L11.3788 13.5L3.95414 20.9246C3.67284 21.2059 3.5148 21.5875 3.5148 21.9853C3.5148 22.3831 3.67284 22.7646 3.95414 23.0459C4.23545 23.3272 4.61698 23.4853 5.0148 23.4853C5.41263 23.4853 5.79416 23.3272 6.07546 23.0459L13.5001 15.6213L20.9247 23.0459Z" fill="#E84118"/>
</g>
<defs>
<clipPath id="clip0_177_191">
<rect width="27" height="27" fill="white"/>
</clipPath>
</defs>
</svg>
