<svg width="403" height="144" viewBox="0 0 403 144" fill="none" xmlns="http://www.w3.org/2000/svg">
<g clip-path="url(#clip0_73_38)">
<path d="M96.7094 126.409C108.989 126.409 122.312 130.619 137.059 143.685C138.536 144.995 140.503 143.368 139.215 141.743C124.723 123.445 111.319 119.96 97.9507 117.015C81.6 113.412 73.1894 104.212 67.3282 94.1108C66.1615 92.0999 65.6391 92.4545 65.5339 95.0373C65.4058 98.1973 65.6235 102.379 66.3307 106.492C65.6708 106.523 65.0068 106.513 64.3402 106.513C40.9479 106.513 21.9855 87.5504 21.9855 64.1593C21.9855 40.7667 40.9479 21.804 64.3402 21.804C87.732 21.804 106.696 40.7667 106.696 64.1593C106.696 65.8228 106.615 67.4681 106.428 69.0827C103.333 68.5255 97.2467 68.4629 92.976 68.8321C91.3694 68.9707 91.5947 69.7187 92.8094 69.9384C106.811 72.4681 116.431 81.1452 118.629 96.8905C118.68 97.2536 119.153 97.3613 119.341 97.0479C125.103 87.4348 128.412 76.1827 128.412 64.1593C128.412 28.7734 99.7267 0.0866699 64.3402 0.0866699C28.9542 0.0866699 0.268311 28.7734 0.268311 64.1593C0.268311 99.5452 28.9542 128.235 64.3402 128.235C73.728 128.235 83.0414 126.409 96.7094 126.409ZM101.479 103.145C104.329 105.556 105.197 108.421 103.689 110.443C102.851 111.55 101.492 112.161 99.8627 112.161C98.2627 112.161 96.6334 111.569 95.5027 110.583C92.9107 108.317 92.1494 104.645 93.8414 102.559C94.5027 101.743 95.5774 101.293 96.8654 101.293C98.4294 101.293 100.068 101.952 101.479 103.145ZM114.632 97.0255C115.051 99.8332 114.163 100.996 113.272 100.996C112.3 100.996 111.08 99.8572 109.64 97.6119C108.22 95.3947 107.7 92.8504 108.404 91.5655C108.869 90.7145 109.843 90.3452 111.071 90.8093C113.448 91.7083 114.381 95.3479 114.632 97.0255ZM203.448 82.352L196.061 73.4681C195.288 72.5359 195.951 71.1239 197.161 71.1239H212.615C213.351 68.9332 213.767 66.5927 213.767 64.1624C213.767 53.0333 205.483 43.4373 194.113 43.4373C182.744 43.4373 174.46 53.0333 174.46 64.1624C174.46 75.2921 182.744 84.752 194.113 84.752C197.559 84.752 200.715 83.8717 203.448 82.352ZM236.871 97.3665C237.673 98.2545 237.015 99.6837 235.805 99.6837H218.941C218.256 99.6837 217.604 99.3785 217.165 98.8504L214.307 95.4135C208.485 99.1879 201.553 101.391 194.113 101.391C173.585 101.391 156.885 84.6905 156.885 64.1624C156.885 43.6347 173.585 26.9333 194.113 26.9333C214.641 26.9333 231.341 43.6347 231.341 64.1624C231.341 71.563 229.163 78.4588 225.425 84.2597L236.871 97.3665ZM392.655 28.6467H378.892C377.881 28.6467 377.061 29.4667 377.061 30.4787V97.8468C377.061 98.8572 377.881 99.6775 378.892 99.6775H392.655C393.665 99.6775 394.485 98.8572 394.485 97.8468V30.4787C394.485 29.4667 393.665 28.6467 392.655 28.6467ZM369.496 28.6467H354.097C353.292 28.6467 352.581 29.168 352.347 29.9333L340.161 69.7452L326.769 29.8893C326.52 29.1467 325.821 28.6467 325.033 28.6467H314.288C313.5 28.6467 312.8 29.1467 312.551 29.8893L299.159 69.7452L286.973 29.9333C286.739 29.168 286.028 28.6467 285.223 28.6467H269.824C269.236 28.6467 268.683 28.928 268.339 29.4013C267.995 29.876 267.901 30.484 268.088 31.0373L290.704 98.4427C290.953 99.1837 291.653 99.6837 292.441 99.6837H304.663C305.451 99.6837 306.149 99.1837 306.4 98.4441L319.66 59.064L332.92 98.4441C333.171 99.1837 333.869 99.6837 334.657 99.6837H346.879C347.667 99.6837 348.367 99.1837 348.616 98.4427L371.232 31.0373C371.419 30.484 371.325 29.876 370.981 29.4013C370.637 28.928 370.084 28.6467 369.496 28.6467ZM262.259 30.4787V97.8468C262.259 98.8572 261.439 99.6775 260.428 99.6775H246.665C245.655 99.6775 244.835 98.8572 244.835 97.8468V30.4787C244.835 29.4667 245.655 28.6467 246.665 28.6467H260.428C261.439 28.6467 262.259 29.4667 262.259 30.4787Z" fill="#F57D14"/>
<path d="M157.98 112.32H167.52C168.768 112.32 169.908 112.524 170.94 112.932C171.996 113.34 172.896 113.904 173.64 114.624C174.384 115.344 174.96 116.196 175.368 117.18C175.776 118.164 175.98 119.244 175.98 120.42C175.98 121.596 175.776 122.676 175.368 123.66C174.96 124.644 174.384 125.496 173.64 126.216C172.896 126.936 171.996 127.5 170.94 127.908C169.908 128.316 168.768 128.52 167.52 128.52H164.28V135H157.98V112.32ZM166.98 122.76C167.7 122.76 168.3 122.532 168.78 122.076C169.26 121.596 169.5 121.044 169.5 120.42C169.5 119.796 169.26 119.256 168.78 118.8C168.3 118.32 167.7 118.08 166.98 118.08H164.28V122.76H166.98Z" fill="black"/>
<path d="M178.503 118.44H182.643L183.543 120.06C183.831 119.7 184.167 119.376 184.551 119.088C184.887 118.824 185.283 118.596 185.739 118.404C186.195 118.188 186.723 118.08 187.323 118.08C187.587 118.08 187.827 118.104 188.043 118.152C188.259 118.176 188.451 118.212 188.619 118.26C188.811 118.332 188.979 118.392 189.123 118.44V124.38C188.955 124.332 188.763 124.272 188.547 124.2C188.355 124.152 188.139 124.116 187.899 124.092C187.659 124.044 187.407 124.02 187.143 124.02C186.327 124.02 185.643 124.308 185.091 124.884C184.539 125.46 184.263 126.252 184.263 127.26V135H178.503V118.44Z" fill="black"/>
<path d="M199.575 135.36C198.303 135.36 197.127 135.144 196.047 134.712C194.991 134.256 194.067 133.644 193.275 132.876C192.483 132.084 191.859 131.172 191.403 130.14C190.971 129.084 190.755 127.944 190.755 126.72C190.755 125.496 190.971 124.368 191.403 123.336C191.859 122.28 192.483 121.368 193.275 120.6C194.067 119.808 194.991 119.196 196.047 118.764C197.127 118.308 198.303 118.08 199.575 118.08C200.823 118.08 201.987 118.308 203.067 118.764C204.147 119.196 205.083 119.808 205.875 120.6C206.667 121.368 207.279 122.28 207.711 123.336C208.167 124.368 208.395 125.496 208.395 126.72C208.395 127.944 208.167 129.084 207.711 130.14C207.279 131.172 206.667 132.084 205.875 132.876C205.083 133.644 204.147 134.256 203.067 134.712C201.987 135.144 200.823 135.36 199.575 135.36ZM199.575 129.96C200.391 129.96 201.099 129.648 201.699 129.024C202.323 128.4 202.635 127.632 202.635 126.72C202.635 125.808 202.323 125.04 201.699 124.416C201.099 123.792 200.391 123.48 199.575 123.48C198.759 123.48 198.039 123.792 197.415 124.416C196.815 125.04 196.515 125.808 196.515 126.72C196.515 127.632 196.815 128.4 197.415 129.024C198.039 129.648 198.759 129.96 199.575 129.96Z" fill="black"/>
<path d="M219.017 135.36C217.745 135.36 216.569 135.144 215.489 134.712C214.433 134.256 213.509 133.644 212.717 132.876C211.925 132.084 211.301 131.172 210.845 130.14C210.413 129.084 210.197 127.944 210.197 126.72C210.197 125.496 210.413 124.368 210.845 123.336C211.301 122.28 211.925 121.368 212.717 120.6C213.509 119.808 214.433 119.196 215.489 118.764C216.569 118.308 217.745 118.08 219.017 118.08C219.905 118.08 220.709 118.176 221.429 118.368C222.149 118.56 222.785 118.812 223.337 119.124C223.889 119.436 224.369 119.796 224.777 120.204C225.209 120.612 225.569 121.02 225.857 121.428C226.529 122.388 227.009 123.492 227.297 124.74L221.717 125.28C221.573 124.944 221.369 124.644 221.105 124.38C220.889 124.164 220.601 123.96 220.241 123.768C219.905 123.576 219.497 123.48 219.017 123.48C218.201 123.48 217.481 123.792 216.857 124.416C216.257 125.04 215.957 125.808 215.957 126.72C215.957 127.632 216.257 128.4 216.857 129.024C217.481 129.648 218.201 129.96 219.017 129.96C219.497 129.96 219.905 129.876 220.241 129.708C220.601 129.516 220.889 129.3 221.105 129.06C221.369 128.796 221.573 128.496 221.717 128.16L227.297 128.7C227.009 129.972 226.529 131.088 225.857 132.048C225.569 132.456 225.209 132.864 224.777 133.272C224.369 133.656 223.889 134.004 223.337 134.316C222.785 134.628 222.149 134.88 221.429 135.072C220.709 135.264 219.905 135.36 219.017 135.36Z" fill="black"/>
<path d="M234.3 135.36C233.436 135.36 232.656 135.24 231.96 135C231.288 134.736 230.712 134.388 230.232 133.956C229.752 133.5 229.38 132.984 229.116 132.408C228.852 131.808 228.72 131.172 228.72 130.5C228.72 129.732 228.888 129.012 229.224 128.34C229.56 127.668 230.112 127.08 230.88 126.576C231.648 126.072 232.644 125.676 233.868 125.388C235.116 125.076 236.64 124.92 238.44 124.92C238.44 124.296 238.284 123.816 237.972 123.48C237.66 123.12 237.276 122.94 236.82 122.94C236.46 122.94 236.16 123.012 235.92 123.156C235.68 123.276 235.5 123.42 235.38 123.588C235.212 123.78 235.092 123.984 235.02 124.2L229.44 123.66C229.632 122.628 230.04 121.704 230.664 120.888C230.928 120.528 231.24 120.18 231.6 119.844C231.984 119.508 232.428 119.208 232.932 118.944C233.46 118.68 234.048 118.476 234.696 118.332C235.368 118.164 236.136 118.08 237 118.08C238.08 118.08 239.064 118.248 239.952 118.584C240.84 118.92 241.596 119.4 242.22 120.024C242.844 120.624 243.324 121.344 243.66 122.184C244.02 123.024 244.2 123.936 244.2 124.92V135H240.06C239.916 134.784 239.796 134.58 239.7 134.388C239.604 134.22 239.508 134.052 239.412 133.884C239.316 133.692 239.232 133.524 239.16 133.38C238.728 133.764 238.26 134.1 237.756 134.388C237.324 134.652 236.808 134.88 236.208 135.072C235.608 135.264 234.972 135.36 234.3 135.36ZM236.1 131.04C236.724 131.04 237.264 130.8 237.72 130.32C238.2 129.84 238.44 129.24 238.44 128.52V127.98C237.624 127.98 236.952 128.028 236.424 128.124C235.92 128.196 235.524 128.316 235.236 128.484C234.948 128.628 234.744 128.82 234.624 129.06C234.528 129.276 234.48 129.516 234.48 129.78C234.48 130.14 234.612 130.44 234.876 130.68C235.14 130.92 235.548 131.04 236.1 131.04Z" fill="black"/>
<path d="M254.108 135.36C251.684 135.36 249.872 134.868 248.672 133.884C247.496 132.9 246.728 131.592 246.368 129.96L251.768 129.42C251.84 129.684 251.96 129.924 252.128 130.14C252.248 130.332 252.428 130.5 252.668 130.644C252.908 130.788 253.208 130.86 253.568 130.86C254.12 130.86 254.528 130.752 254.792 130.536C255.056 130.296 255.188 130.044 255.188 129.78C255.188 129.54 254.972 129.348 254.54 129.204C254.132 129.036 253.616 128.868 252.992 128.7C252.368 128.532 251.684 128.328 250.94 128.088C250.22 127.848 249.548 127.536 248.924 127.152C248.3 126.744 247.772 126.24 247.34 125.64C246.932 125.016 246.728 124.236 246.728 123.3C246.728 122.628 246.884 121.98 247.196 121.356C247.508 120.732 247.952 120.18 248.528 119.7C249.104 119.196 249.812 118.8 250.652 118.512C251.516 118.224 252.488 118.08 253.568 118.08C255.896 118.08 257.648 118.572 258.824 119.556C260 120.516 260.768 121.764 261.128 123.3L255.728 123.84C255.656 123.624 255.56 123.42 255.44 123.228C255.32 123.06 255.152 122.916 254.936 122.796C254.744 122.652 254.468 122.58 254.108 122.58C253.268 122.58 252.848 122.88 252.848 123.48C252.848 123.72 253.052 123.912 253.46 124.056C253.892 124.2 254.42 124.356 255.044 124.524C255.668 124.692 256.34 124.884 257.06 125.1C257.804 125.316 258.488 125.628 259.112 126.036C259.736 126.444 260.252 126.96 260.66 127.584C261.092 128.208 261.308 129 261.308 129.96C261.308 130.68 261.152 131.364 260.84 132.012C260.528 132.66 260.06 133.236 259.436 133.74C258.836 134.244 258.092 134.64 257.204 134.928C256.316 135.216 255.284 135.36 254.108 135.36Z" fill="black"/>
<path d="M271.751 135.36C270.479 135.36 269.303 135.144 268.223 134.712C267.167 134.256 266.243 133.644 265.451 132.876C264.659 132.084 264.035 131.172 263.579 130.14C263.147 129.084 262.931 127.944 262.931 126.72C262.931 125.496 263.147 124.368 263.579 123.336C264.035 122.28 264.659 121.368 265.451 120.6C266.243 119.808 267.167 119.196 268.223 118.764C269.303 118.308 270.479 118.08 271.751 118.08C272.927 118.08 274.019 118.296 275.027 118.728C276.059 119.136 276.959 119.724 277.727 120.492C278.495 121.236 279.095 122.124 279.527 123.156C279.983 124.188 280.211 125.316 280.211 126.54C280.211 126.78 280.199 127.008 280.175 127.224C280.151 127.416 280.127 127.596 280.103 127.764C280.079 127.956 280.055 128.148 280.031 128.34H269.051C269.171 128.748 269.351 129.108 269.591 129.42C269.783 129.684 270.047 129.936 270.383 130.176C270.743 130.392 271.199 130.5 271.751 130.5C272.159 130.5 272.495 130.452 272.759 130.356C273.047 130.236 273.275 130.104 273.443 129.96C273.635 129.816 273.791 129.636 273.911 129.42L279.671 129.96C279.455 130.632 279.131 131.292 278.699 131.94C278.267 132.588 277.727 133.164 277.079 133.668C276.431 134.172 275.663 134.58 274.775 134.892C273.887 135.204 272.879 135.36 271.751 135.36ZM274.451 125.1C274.355 124.476 274.055 123.936 273.551 123.48C273.071 123 272.471 122.76 271.751 122.76C271.031 122.76 270.419 123 269.915 123.48C269.435 123.936 269.147 124.476 269.051 125.1H274.451Z" fill="black"/>
<path d="M290.481 135.36C288.489 135.36 286.941 134.808 285.837 133.704C284.733 132.576 284.181 130.968 284.181 128.88V123.66H281.841V118.8H282.921C284.241 118.8 284.901 118.14 284.901 116.82V114.48H289.941V118.44H293.361V123.66H289.941V127.62C289.941 128.34 290.133 128.916 290.517 129.348C290.901 129.756 291.369 129.96 291.921 129.96C292.113 129.96 292.281 129.96 292.425 129.96C292.569 129.936 292.701 129.912 292.821 129.888C292.941 129.864 293.061 129.828 293.181 129.78V134.82C292.917 134.916 292.641 135.012 292.353 135.108C292.089 135.18 291.801 135.24 291.489 135.288C291.177 135.336 290.841 135.36 290.481 135.36Z" fill="black"/>
<path d="M296.593 118.44H302.353V135H296.593V118.44ZM299.473 116.82C298.561 116.82 297.817 116.544 297.241 115.992C296.689 115.44 296.413 114.756 296.413 113.94C296.413 113.124 296.689 112.44 297.241 111.888C297.817 111.336 298.561 111.06 299.473 111.06C300.385 111.06 301.117 111.336 301.669 111.888C302.245 112.44 302.533 113.124 302.533 113.94C302.533 114.756 302.245 115.44 301.669 115.992C301.117 116.544 300.385 116.82 299.473 116.82Z" fill="black"/>
<path d="M305.593 118.44H309.733L310.633 120.06C311.017 119.7 311.449 119.376 311.929 119.088C312.337 118.824 312.841 118.596 313.441 118.404C314.041 118.188 314.725 118.08 315.493 118.08C316.477 118.08 317.377 118.248 318.193 118.584C319.009 118.896 319.705 119.364 320.281 119.988C320.881 120.612 321.337 121.368 321.649 122.256C321.985 123.144 322.153 124.152 322.153 125.28V135H316.393V126.36C316.393 125.448 316.153 124.74 315.673 124.236C315.193 123.732 314.593 123.48 313.873 123.48C313.153 123.48 312.553 123.732 312.073 124.236C311.593 124.74 311.353 125.448 311.353 126.36V135H305.593V118.44Z" fill="black"/>
<path d="M329.89 135.36C329.026 135.36 328.246 135.24 327.55 135C326.878 134.736 326.302 134.388 325.822 133.956C325.342 133.5 324.97 132.984 324.706 132.408C324.442 131.808 324.31 131.172 324.31 130.5C324.31 129.732 324.478 129.012 324.814 128.34C325.15 127.668 325.702 127.08 326.47 126.576C327.238 126.072 328.234 125.676 329.458 125.388C330.706 125.076 332.23 124.92 334.03 124.92C334.03 124.296 333.874 123.816 333.562 123.48C333.25 123.12 332.866 122.94 332.41 122.94C332.05 122.94 331.75 123.012 331.51 123.156C331.27 123.276 331.09 123.42 330.97 123.588C330.802 123.78 330.682 123.984 330.61 124.2L325.03 123.66C325.222 122.628 325.63 121.704 326.254 120.888C326.518 120.528 326.83 120.18 327.19 119.844C327.574 119.508 328.018 119.208 328.522 118.944C329.05 118.68 329.638 118.476 330.286 118.332C330.958 118.164 331.726 118.08 332.59 118.08C333.67 118.08 334.654 118.248 335.542 118.584C336.43 118.92 337.186 119.4 337.81 120.024C338.434 120.624 338.914 121.344 339.25 122.184C339.61 123.024 339.79 123.936 339.79 124.92V135H335.65C335.506 134.784 335.386 134.58 335.29 134.388C335.194 134.22 335.098 134.052 335.002 133.884C334.906 133.692 334.822 133.524 334.75 133.38C334.318 133.764 333.85 134.1 333.346 134.388C332.914 134.652 332.398 134.88 331.798 135.072C331.198 135.264 330.562 135.36 329.89 135.36ZM331.69 131.04C332.314 131.04 332.854 130.8 333.31 130.32C333.79 129.84 334.03 129.24 334.03 128.52V127.98C333.214 127.98 332.542 128.028 332.014 128.124C331.51 128.196 331.114 128.316 330.826 128.484C330.538 128.628 330.334 128.82 330.214 129.06C330.118 129.276 330.07 129.516 330.07 129.78C330.07 130.14 330.202 130.44 330.466 130.68C330.73 130.92 331.138 131.04 331.69 131.04Z" fill="black"/>
<path d="M350.247 135.36C348.255 135.36 346.707 134.808 345.603 133.704C344.499 132.576 343.947 130.968 343.947 128.88V123.66H341.607V118.8H342.687C344.007 118.8 344.667 118.14 344.667 116.82V114.48H349.707V118.44H353.127V123.66H349.707V127.62C349.707 128.34 349.899 128.916 350.283 129.348C350.667 129.756 351.135 129.96 351.687 129.96C351.879 129.96 352.047 129.96 352.191 129.96C352.335 129.936 352.467 129.912 352.587 129.888C352.707 129.864 352.827 129.828 352.947 129.78V134.82C352.683 134.916 352.407 135.012 352.119 135.108C351.855 135.18 351.567 135.24 351.255 135.288C350.943 135.336 350.607 135.36 350.247 135.36Z" fill="black"/>
<path d="M356.358 118.44H362.118V135H356.358V118.44ZM359.238 116.82C358.326 116.82 357.582 116.544 357.006 115.992C356.454 115.44 356.178 114.756 356.178 113.94C356.178 113.124 356.454 112.44 357.006 111.888C357.582 111.336 358.326 111.06 359.238 111.06C360.15 111.06 360.882 111.336 361.434 111.888C362.01 112.44 362.298 113.124 362.298 113.94C362.298 114.756 362.01 115.44 361.434 115.992C360.882 116.544 360.15 116.82 359.238 116.82Z" fill="black"/>
<path d="M373.458 135.36C372.186 135.36 371.01 135.144 369.93 134.712C368.874 134.256 367.95 133.644 367.158 132.876C366.366 132.084 365.742 131.172 365.286 130.14C364.854 129.084 364.638 127.944 364.638 126.72C364.638 125.496 364.854 124.368 365.286 123.336C365.742 122.28 366.366 121.368 367.158 120.6C367.95 119.808 368.874 119.196 369.93 118.764C371.01 118.308 372.186 118.08 373.458 118.08C374.706 118.08 375.87 118.308 376.95 118.764C378.03 119.196 378.966 119.808 379.758 120.6C380.55 121.368 381.162 122.28 381.594 123.336C382.05 124.368 382.278 125.496 382.278 126.72C382.278 127.944 382.05 129.084 381.594 130.14C381.162 131.172 380.55 132.084 379.758 132.876C378.966 133.644 378.03 134.256 376.95 134.712C375.87 135.144 374.706 135.36 373.458 135.36ZM373.458 129.96C374.274 129.96 374.982 129.648 375.582 129.024C376.206 128.4 376.518 127.632 376.518 126.72C376.518 125.808 376.206 125.04 375.582 124.416C374.982 123.792 374.274 123.48 373.458 123.48C372.642 123.48 371.922 123.792 371.298 124.416C370.698 125.04 370.398 125.808 370.398 126.72C370.398 127.632 370.698 128.4 371.298 129.024C371.922 129.648 372.642 129.96 373.458 129.96Z" fill="black"/>
<path d="M384.8 118.44H388.94L389.84 120.06C390.224 119.7 390.656 119.376 391.136 119.088C391.544 118.824 392.048 118.596 392.648 118.404C393.248 118.188 393.932 118.08 394.7 118.08C395.684 118.08 396.584 118.248 397.4 118.584C398.216 118.896 398.912 119.364 399.488 119.988C400.088 120.612 400.544 121.368 400.856 122.256C401.192 123.144 401.36 124.152 401.36 125.28V135H395.6V126.36C395.6 125.448 395.36 124.74 394.88 124.236C394.4 123.732 393.8 123.48 393.08 123.48C392.36 123.48 391.76 123.732 391.28 124.236C390.8 124.74 390.56 125.448 390.56 126.36V135H384.8V118.44Z" fill="black"/>
</g>
<defs>
<clipPath id="clip0_73_38">
<rect width="403" height="144" fill="white"/>
</clipPath>
</defs>
</svg>
