<svg width="155" height="155" viewBox="0 0 155 155" fill="none" xmlns="http://www.w3.org/2000/svg">
<path d="M125.9 104C126.3 107 125.4 108.3 124.4 108.3C123.4 108.3 122 107.1 120.5 104.7C119 102.3 118.4 99.6 119.2 98.2C119.7 97.3 120.7 96.9 122.1 97.4C124.6 98.3 125.6 102.2 125.9 104ZM111.7 110.6C114.8 113.2 115.7 116.3 114.1 118.4C113.2 119.6 111.7 120.2 110 120.2C108.3 120.2 106.5 119.6 105.3 118.5C102.5 116.1 101.7 112.1 103.5 109.9C104.2 109 105.4 108.5 106.7 108.5C108.4 108.6 110.2 109.3 111.7 110.6ZM106.6 135.6C119.8 135.6 134.1 140.1 149.9 154.2C151.5 155.6 153.6 153.9 152.2 152.1C136.6 132.4 122.2 128.7 107.9 125.5C90.3 121.6 81.3 111.7 75 100.9C73.7 98.7 73.2 99.1 73.1 101.9C73 105.3 73.2 109.8 74 114.2C73.3 114.2 72.6 114.2 71.9 114.2C46.8 114.2 26.4 93.8 26.4 68.7C26.4 43.6 46.8 23.2 71.9 23.2C97 23.2 117.4 43.6 117.4 68.7C117.4 70.5 117.3 72.3 117.1 74C113.8 73.4 107.2 73.3 102.6 73.7C100.9 73.8 101.1 74.7 102.4 74.9C117.4 77.6 127.8 86.9 130.1 103.9C130.2 104.3 130.7 104.4 130.9 104.1C137.1 93.8 140.6 81.7 140.6 68.8C140.6 30.8 109.8 0 71.8 0C33.8 0 3 30.8 3 68.8C3 106.8 33.8 137.6 71.8 137.6C81.9 137.6 91.9 135.6 106.6 135.6Z" fill="#FF8C00"/>
</svg>
